# This file uses centimeters as units for non-parametric coordinates.

mtllib NPClidB.mtl
g default
v 0.363462 0.628707 -6.473884
v 0.266538 0.628707 -6.642470
v 0.098305 0.628707 -6.740009
v -0.096159 0.628707 -6.740363
v -0.264746 0.628707 -6.643439
v -0.362285 0.628707 -6.475206
v -0.362640 0.628707 -6.280742
v -0.265716 0.628707 -6.112156
v -0.097483 0.628707 -6.014617
v 0.096981 0.628707 -6.014263
v 0.265568 0.628707 -6.111186
v 0.363107 0.628707 -6.279419
v 0.252926 0.751570 -6.444480
v 0.185511 0.751570 -6.561740
v 0.068499 0.751570 -6.629581
v -0.066757 0.751570 -6.629828
v -0.184015 0.751570 -6.562414
v -0.251857 0.751570 -6.445402
v -0.252104 0.751570 -6.310145
v -0.184690 0.751570 -6.192886
v -0.067678 0.751570 -6.125045
v 0.067578 0.751570 -6.124798
v 0.184837 0.751570 -6.192212
v 0.252679 0.751570 -6.309224
v 0.000411 0.628707 -6.377313
v 0.054374 0.751570 -6.424473
v 0.055548 0.751570 -6.506803
v 0.020693 0.751570 -6.505110
v -0.019597 0.751570 -6.505235
v -0.054525 0.751570 -6.507275
v -0.053499 0.751570 -6.425120
v -0.053552 0.751570 -6.330153
v -0.054726 0.751570 -6.247824
v -0.019871 0.751570 -6.249516
v 0.020419 0.751570 -6.249391
v 0.055347 0.751570 -6.247350
v 0.054321 0.751570 -6.329506
v 0.040715 0.856435 -6.412862
v 0.041592 0.856435 -6.474922
v 0.000411 0.856435 -6.377313
v 0.015559 0.856435 -6.473647
v -0.014533 0.856435 -6.473741
v -0.040621 0.856435 -6.475279
v -0.039854 0.856435 -6.413350
v -0.039894 0.856435 -6.341764
v -0.040771 0.856435 -6.279704
v -0.014738 0.856435 -6.280979
v 0.015354 0.856435 -6.280885
v 0.041442 0.856435 -6.279347
v 0.040676 0.856435 -6.341276
vt 0.076628 0.898322
vt 0.005688 0.767653
vt 0.545623 0.339400
vt 0.585605 0.419738
vt 0.008674 0.619257
vt 0.550523 0.249664
vt 0.085246 0.492926
vt 0.599337 0.172925
vt 0.215092 0.422927
vt 0.680886 0.126507
vt 0.363168 0.428402
vt 0.774119 0.140582
vt 0.489337 0.507849
vt 0.847715 0.193871
vt 0.559585 0.639561
vt 0.885433 0.274535
vt 0.555348 0.787865
vt 0.878524 0.362944
vt 0.478217 0.913060
vt 0.828695 0.436413
vt 0.349063 0.982016
vt 0.748782 0.475399
vt 0.202237 0.976634
vt 0.659889 0.469357
vt 0.282364 0.703670
vt 0.711754 0.788793
vt 0.678411 0.766312
vt 0.745633 0.780384
vt 0.688457 0.752764
vt 0.699507 0.736657
vt 0.708542 0.722362
vt 0.741285 0.745568
vt 0.779513 0.771975
vt 0.812855 0.794456
vt 0.802809 0.808004
vt 0.791760 0.824111
vt 0.782725 0.838406
vt 0.749981 0.815201
vt 0.614881 0.733558
vt 0.666667 0.841036
vt 0.628007 0.715146
vt 0.642759 0.693704
vt 0.730659 0.654265
vt 0.774206 0.684833
vt 0.824600 0.719732
vt 0.876385 0.827209
vt 0.863259 0.845621
vt 0.848508 0.867064
vt 0.760608 0.906503
vt 0.717061 0.875935
vt 0.627378 0.576922
vt 0.504169 0.497200
vt 0.773792 0.584965
vt 0.904623 0.519303
vt 0.985405 0.397861
vt 0.995768 0.253300
vt 0.934827 0.123225
vt 0.821365 0.038843
vt 0.632667 0.019489
vt 0.514940 0.096137
vt 0.441402 0.220976
vt 0.436578 0.367020
vt 0.688219 0.011346
vt 0.721240 0.352076
vt 0.669051 0.316319
vt 0.765947 0.383562
vt 0.777626 0.363615
vt 0.792331 0.341452
vt 0.806120 0.323005
vt 0.760560 0.292336
vt 0.708377 0.255734
vt 0.663511 0.223515
vt 0.651734 0.244186
vt 0.636952 0.266909
vt 0.623219 0.285928
vt 0.655241 0.674777
vt 0.836026 0.885991
vt 0.868680 0.749722
vt 0.622586 0.811046
vn 0.644635 0.668649 -0.370613
vn 0.644635 0.668649 -0.370613
vn 0.644635 0.668649 -0.370613
vn 0.644635 0.668649 -0.370613
vn 0.372961 0.668648 -0.643280
vn 0.372961 0.668648 -0.643280
vn 0.372961 0.668648 -0.643280
vn 0.372961 0.668648 -0.643280
vn 0.001355 0.668648 -0.743578
vn 0.001355 0.668648 -0.743578
vn 0.001355 0.668648 -0.743578
vn 0.001355 0.668648 -0.743578
vn -0.370613 0.668646 -0.644638
vn -0.370613 0.668646 -0.644638
vn -0.370613 0.668646 -0.644638
vn -0.370613 0.668646 -0.644638
vn -0.643280 0.668647 -0.372964
vn -0.643280 0.668647 -0.372964
vn -0.643280 0.668647 -0.372964
vn -0.643280 0.668647 -0.372964
vn -0.743578 0.668648 -0.001358
vn -0.743578 0.668648 -0.001358
vn -0.743578 0.668648 -0.001358
vn -0.743578 0.668648 -0.001358
vn -0.644634 0.668649 0.370614
vn -0.644634 0.668649 0.370614
vn -0.644634 0.668649 0.370614
vn -0.644634 0.668649 0.370614
vn -0.372963 0.668647 0.643281
vn -0.372963 0.668647 0.643281
vn -0.372963 0.668647 0.643281
vn -0.372963 0.668647 0.643281
vn -0.001355 0.668646 0.743579
vn -0.001355 0.668646 0.743579
vn -0.001355 0.668646 0.743579
vn -0.001355 0.668646 0.743579
vn 0.370612 0.668646 0.644639
vn 0.370612 0.668646 0.644639
vn 0.370612 0.668646 0.644639
vn 0.370612 0.668646 0.644639
vn 0.643280 0.668647 0.372963
vn 0.643280 0.668647 0.372963
vn 0.643280 0.668647 0.372963
vn 0.643280 0.668647 0.372963
vn 0.743578 0.668648 0.001357
vn 0.743578 0.668648 0.001357
vn 0.743578 0.668648 0.001357
vn 0.743578 0.668648 0.001357
vn -0.000000 -1.000000 0.000000
vn -0.000000 -1.000000 0.000000
vn -0.000000 -1.000000 0.000000
vn -0.000000 -1.000000 0.000000
vn 0.000000 -1.000000 0.000000
vn 0.000000 -1.000000 0.000000
vn 0.000000 -1.000000 0.000000
vn 0.000000 -1.000000 0.000000
vn 0.000000 -1.000000 -0.000000
vn 0.000000 -1.000000 -0.000000
vn 0.000000 -1.000000 0.000000
vn 0.000000 -1.000000 0.000000
vn 0.000000 -1.000000 0.000000
vn 0.000000 1.000000 0.000000
vn -0.000000 1.000000 0.000000
vn 0.000000 1.000000 -0.000000
vn 0.000000 1.000000 -0.000000
vn 0.000000 1.000000 -0.000000
vn 0.000000 1.000000 0.000000
vn 0.000000 1.000000 0.000000
vn 0.000000 1.000000 0.000000
vn 0.000000 1.000000 -0.000000
vn -0.000000 1.000000 0.000000
vn -0.000000 1.000000 0.000000
vn 0.000000 1.000000 -0.000000
vn 0.000000 1.000000 -0.000001
vn 0.000000 1.000000 0.000000
vn 0.000000 1.000000 0.000000
vn 0.000000 1.000000 0.000000
vn 0.000000 1.000000 0.000000
vn 0.000000 1.000000 -0.000000
vn 0.000000 1.000000 -0.000000
vn 0.000000 1.000000 -0.000000
vn 0.000000 1.000000 -0.000000
vn 0.000000 1.000000 -0.000000
vn 0.000000 1.000000 -0.000000
vn 0.000000 1.000000 -0.000000
vn 0.000000 1.000000 -0.000000
vn 0.000000 1.000000 0.000000
vn 0.000000 1.000000 0.000000
vn 0.000000 1.000000 0.000000
vn 0.000000 1.000000 0.000000
vn 0.000000 1.000000 -0.000000
vn 0.000000 1.000000 -0.000000
vn 0.000000 1.000000 -0.000000
vn 0.000000 1.000000 -0.000000
vn -0.000000 1.000000 0.000000
vn -0.000000 1.000000 0.000000
vn -0.000000 1.000000 0.000000
vn -0.000000 1.000000 0.000000
vn 0.000000 1.000000 -0.000000
vn 0.000000 1.000000 -0.000000
vn 0.000000 1.000000 -0.000000
vn 0.000000 1.000000 -0.000000
vn 0.000000 1.000000 -0.000000
vn 0.000000 1.000000 -0.000000
vn 0.000000 1.000000 -0.000000
vn 0.000000 1.000000 -0.000000
vn -0.000000 1.000000 0.000000
vn -0.000000 1.000000 0.000000
vn -0.000000 1.000000 0.000000
vn -0.000000 1.000000 0.000000
vn 0.000000 1.000000 0.000000
vn 0.000000 1.000000 0.000000
vn 0.000000 1.000000 0.000000
vn 0.000000 1.000000 0.000000
vn 0.000000 1.000000 0.000000
vn 0.000000 1.000000 0.000000
vn 0.000000 1.000000 0.000000
vn 0.000000 1.000000 0.000000
vn 0.000000 1.000000 0.000000
vn 0.000000 1.000000 0.000000
vn 0.000000 1.000000 0.000000
vn 0.000000 1.000000 0.000000
vn 0.991719 0.127656 0.014088
vn 0.991719 0.127656 0.014088
vn 0.991719 0.127656 0.014088
vn 0.991719 0.127656 0.014088
vn -0.046667 0.284919 -0.957415
vn -0.046667 0.284919 -0.957415
vn -0.046667 0.284919 -0.957415
vn -0.046667 0.284919 -0.957415
vn 0.002984 0.287510 -0.957773
vn 0.002984 0.287510 -0.957773
vn 0.002984 0.287510 -0.957773
vn 0.002984 0.287510 -0.957773
vn 0.056116 0.284633 -0.956993
vn 0.056116 0.284633 -0.956993
vn 0.056116 0.284633 -0.956993
vn 0.056116 0.284633 -0.956993
vn -0.991736 0.127699 0.012338
vn -0.991736 0.127699 0.012338
vn -0.991736 0.127699 0.012338
vn -0.991736 0.127699 0.012338
vn -0.991632 0.129097 -0.000548
vn -0.991632 0.129097 -0.000548
vn -0.991632 0.129097 -0.000548
vn -0.991632 0.129097 -0.000548
vn -0.991719 0.127654 -0.014089
vn -0.991719 0.127654 -0.014089
vn -0.991719 0.127654 -0.014089
vn -0.991719 0.127654 -0.014089
vn 0.046659 0.284918 0.957416
vn 0.046659 0.284918 0.957416
vn 0.046659 0.284918 0.957416
vn 0.046659 0.284918 0.957416
vn -0.002977 0.287512 0.957772
vn -0.002977 0.287512 0.957772
vn -0.002977 0.287512 0.957772
vn -0.002977 0.287512 0.957772
vn -0.056139 0.284633 0.956991
vn -0.056139 0.284633 0.956991
vn -0.056138 0.284633 0.956991
vn -0.056138 0.284633 0.956991
vn 0.991736 0.127700 -0.012339
vn 0.991736 0.127700 -0.012339
vn 0.991736 0.127700 -0.012339
vn 0.991736 0.127700 -0.012339
vn 0.991632 0.129097 0.000550
vn 0.991632 0.129097 0.000550
vn 0.991632 0.129097 0.000550
vn 0.991632 0.129097 0.000550
s off
g pCylinder2
usemtl initialShadingGroup
f 1/52/1 2/62/2 14/3/3 13/4/4
f 2/62/5 3/61/6 15/6/7 14/3/8
f 3/61/9 4/60/10 16/8/11 15/6/12
f 4/60/13 5/59/14 17/10/15 16/8/16
f 5/63/17 6/58/18 18/12/19 17/10/20
f 6/58/21 7/57/22 19/14/23 18/12/24
f 7/57/25 8/56/26 20/16/27 19/14/28
f 8/56/29 9/55/30 21/18/31 20/16/32
f 9/55/33 10/54/34 22/20/35 21/18/36
f 10/54/37 11/53/38 23/22/39 22/20/40
f 11/53/41 12/51/42 24/24/43 23/22/44
f 12/51/45 1/52/46 13/4/47 24/24/48
s 1
f 2/2/49 1/1/50 25/25/51
f 3/5/52 2/2/49 25/25/51
f 4/7/53 3/5/52 25/25/51
f 5/9/54 4/7/53 25/25/51
f 6/11/55 5/9/54 25/25/51
f 7/13/56 6/11/55 25/25/51
f 8/15/57 7/13/56 25/25/51
f 9/17/58 8/15/57 25/25/51
f 10/19/59 9/17/58 25/25/51
f 11/21/60 10/19/59 25/25/51
f 12/23/61 11/21/60 25/25/51
f 1/1/50 12/23/61 25/25/51
s 2
f 38/26/62 39/27/63 40/28/64
f 39/27/63 41/29/65 40/28/64
f 41/29/65 42/30/66 40/28/64
f 42/30/66 43/31/67 40/28/64
f 43/31/67 44/32/68 40/28/64
f 44/32/68 45/33/69 40/28/64
f 45/33/69 46/34/70 40/28/64
f 46/34/70 47/35/71 40/28/64
f 47/35/71 48/36/72 40/28/64
f 48/36/72 49/37/73 40/28/64
f 49/37/73 50/38/74 40/28/64
f 50/38/74 38/26/62 40/28/64
s off
f 13/4/75 14/3/76 27/75/77 26/65/78
f 14/3/79 15/6/80 28/74/81 27/75/82
f 15/6/83 16/8/84 29/73/85 28/74/86
f 16/8/87 17/10/88 30/72/89 29/73/90
f 17/10/91 18/12/92 31/71/93 30/72/94
f 18/12/95 19/14/96 32/70/97 31/71/98
f 19/14/99 20/16/100 33/69/101 32/70/102
f 20/16/103 21/18/104 34/68/105 33/69/106
f 21/18/107 22/20/108 35/67/109 34/68/110
f 22/20/111 23/22/112 36/66/113 35/67/114
f 23/22/115 24/24/116 37/64/117 36/66/118
f 24/24/119 13/4/120 26/65/121 37/64/122
f 26/40/123 27/79/124 39/27/125 38/26/126
f 27/39/127 28/41/128 41/29/129 39/27/130
f 28/41/131 29/42/132 42/30/133 41/29/134
f 29/42/135 30/76/136 43/31/137 42/30/138
f 30/43/139 31/44/140 44/32/141 43/31/142
f 31/44/143 32/45/144 45/33/145 44/32/146
f 32/45/147 33/78/148 46/34/149 45/33/150
f 33/46/151 34/47/152 47/35/153 46/34/154
f 34/47/155 35/48/156 48/36/157 47/35/158
f 35/48/159 36/77/160 49/37/161 48/36/162
f 36/49/163 37/50/164 50/38/165 49/37/166
f 37/50/167 26/40/168 38/26/169 50/38/170
