# This file uses centimeters as units for non-parametric coordinates.

mtllib Rock3.mtl
g default
v 0.085735 1.404451 2.833586
v 0.285804 0.097924 2.803224
v -0.409957 0.601132 2.551330
v -0.397570 -0.020769 2.921429
v -0.651949 0.612666 2.733480
v 0.023976 0.969745 2.374466
v -0.007062 1.393225 3.801755
v 0.690567 0.665817 2.996001
v 0.764549 0.866813 3.909239
v -0.660127 0.810269 4.434636
v -0.385575 0.579713 4.542519
v -0.821740 0.657686 4.302854
v -0.353127 -0.079484 4.141048
v -0.577346 0.012178 3.996166
v -0.286474 1.118716 4.295183
v -0.008282 0.644337 2.404490
v -0.616636 0.963780 2.667346
v 0.480116 -0.028266 3.590616
v 0.159831 0.156047 4.288629
v -0.077923 0.357045 4.526635
v 0.799442 0.287622 3.840375
v 0.698287 0.248810 3.983960
v -0.699029 1.182460 3.552934
v -0.603082 0.094144 3.039684
v -0.453154 -0.155503 3.433611
v -0.788575 0.174757 3.717680
v -0.963904 0.727537 3.655383
v -0.683174 0.432777 4.359985
v 0.909301 0.591850 4.070225
v -0.857475 0.795648 4.192005
v 0.780245 0.673124 3.117504
v -0.454421 1.338400 4.082913
v -0.450254 1.396018 2.797310
v -0.182438 1.414468 2.530444
v -0.827731 0.985241 3.952656
v 0.047710 1.341449 3.224483
v 0.165463 0.577562 4.546857
v -0.458731 1.404329 3.455353
v -0.061554 1.153348 2.349743
v -0.472414 -0.094896 3.039482
v -0.143714 -0.176011 3.938461
v -0.024834 1.428679 2.494726
v -0.844866 0.648917 3.051325
v -0.963710 0.456609 3.705202
v 0.410952 1.220681 3.453383
v 0.757080 0.769527 3.233479
v 0.616932 0.536631 4.315942
v -0.645672 1.112900 2.821942
v -0.247908 0.208965 4.444335
vn 0.365615 -0.476833 0.799347
vn 0.365615 -0.476833 0.799347
vn 0.365615 -0.476833 0.799347
vn 0.623213 -0.186365 -0.759522
vn 0.623213 -0.186365 -0.759522
vn 0.623213 -0.186365 -0.759522
vn 0.731994 0.654252 -0.190103
vn 0.731994 0.654252 -0.190103
vn 0.731994 0.654252 -0.190103
vn -0.618351 -0.426711 -0.659969
vn -0.618351 -0.426711 -0.659969
vn -0.618351 -0.426711 -0.659969
vn 0.780123 -0.543195 -0.310400
vn 0.780123 -0.543195 -0.310400
vn 0.780123 -0.543195 -0.310400
vn 0.665171 -0.591780 -0.455350
vn 0.665171 -0.591780 -0.455350
vn 0.665171 -0.591780 -0.455350
vn 0.164706 -0.966757 -0.195582
vn 0.164706 -0.966757 -0.195582
vn 0.164706 -0.966757 -0.195582
vn 0.156180 -0.978394 -0.135471
vn 0.156180 -0.978394 -0.135471
vn 0.156180 -0.978394 -0.135471
vn -0.601703 -0.088992 -0.793747
vn -0.601703 -0.088992 -0.793747
vn -0.601703 -0.088992 -0.793747
vn -0.249734 -0.498867 -0.829919
vn -0.249734 -0.498867 -0.829919
vn -0.249734 -0.498867 -0.829919
vn -0.620044 -0.441447 -0.648591
vn -0.620044 -0.441447 -0.648591
vn -0.620044 -0.441447 -0.648591
vn -0.818716 -0.347220 -0.457321
vn -0.818716 -0.347220 -0.457321
vn -0.818716 -0.347220 -0.457321
vn 0.074441 -0.098937 -0.992305
vn 0.074441 -0.098937 -0.992305
vn 0.074441 -0.098937 -0.992305
vn 0.700785 -0.134117 -0.700652
vn 0.700784 -0.134117 -0.700652
vn 0.700784 -0.134117 -0.700652
vn 0.209304 0.961990 0.175405
vn 0.209304 0.961990 0.175405
vn 0.209304 0.961990 0.175405
vn -0.086218 0.996182 -0.013692
vn -0.086218 0.996182 -0.013692
vn -0.086218 0.996182 -0.013692
vn 0.199401 0.964202 0.174798
vn 0.199401 0.964202 0.174798
vn 0.199401 0.964202 0.174798
vn 0.059138 0.996896 0.051980
vn 0.059138 0.996896 0.051980
vn 0.059138 0.996896 0.051980
vn -0.495464 -0.004492 -0.868617
vn -0.495464 -0.004492 -0.868617
vn -0.495464 -0.004492 -0.868617
vn 0.823928 -0.491491 -0.282096
vn 0.823928 -0.491491 -0.282096
vn 0.823928 -0.491492 -0.282096
vn -0.591144 -0.607587 0.530459
vn -0.591144 -0.607587 0.530459
vn -0.591144 -0.607587 0.530459
vn 0.388873 0.693778 0.606176
vn 0.388873 0.693778 0.606176
vn 0.388873 0.693778 0.606176
vn -0.033762 -0.600926 -0.798591
vn -0.033762 -0.600926 -0.798591
vn -0.033762 -0.600926 -0.798591
vn 0.395550 0.637723 0.660946
vn 0.395550 0.637723 0.660946
vn 0.395550 0.637723 0.660946
vn -0.430416 -0.574771 0.695974
vn -0.430416 -0.574771 0.695974
vn -0.430416 -0.574771 0.695974
vn -0.464576 -0.144410 0.873679
vn -0.464576 -0.144410 0.873679
vn -0.464576 -0.144410 0.873679
vn -0.352363 -0.359651 0.863997
vn -0.352363 -0.359651 0.863997
vn -0.352363 -0.359651 0.863997
vn -0.178623 -0.313330 0.932694
vn -0.178623 -0.313330 0.932694
vn -0.178623 -0.313330 0.932694
vn -0.550316 -0.129519 0.824850
vn -0.550316 -0.129519 0.824850
vn -0.550316 -0.129519 0.824850
vn -0.202172 0.596189 0.776972
vn -0.202172 0.596189 0.776972
vn -0.202172 0.596189 0.776972
vn -0.008167 -0.082374 0.996568
vn -0.008167 -0.082374 0.996568
vn -0.008167 -0.082374 0.996568
vn -0.005516 0.418422 0.908236
vn -0.005516 0.418422 0.908236
vn -0.005516 0.418422 0.908236
vn -0.296510 -0.944205 0.143387
vn -0.296510 -0.944205 0.143387
vn -0.296510 -0.944205 0.143387
vn -0.005752 0.417735 0.908551
vn -0.005752 0.417735 0.908551
vn -0.005752 0.417735 0.908551
vn -0.327383 -0.134851 -0.935220
vn -0.327383 -0.134851 -0.935220
vn -0.327383 -0.134851 -0.935220
vn 0.783222 0.458717 -0.419692
vn 0.783222 0.458717 -0.419692
vn 0.783222 0.458717 -0.419692
vn 0.718667 0.246786 -0.650088
vn 0.718667 0.246786 -0.650088
vn 0.718667 0.246786 -0.650088
vn 0.718067 0.246886 -0.650713
vn 0.718067 0.246886 -0.650713
vn 0.718067 0.246886 -0.650713
vn 0.436324 0.614514 0.657263
vn 0.436324 0.614514 0.657263
vn 0.436324 0.614514 0.657263
vn 0.403151 -0.838350 0.366932
vn 0.403151 -0.838350 0.366932
vn 0.403151 -0.838350 0.366932
vn 0.386568 -0.812848 0.435710
vn 0.386568 -0.812848 0.435710
vn 0.386568 -0.812848 0.435711
vn -0.906096 0.206428 -0.369294
vn -0.906096 0.206428 -0.369294
vn -0.906096 0.206428 -0.369294
vn -0.855385 -0.011514 -0.517865
vn -0.855385 -0.011514 -0.517865
vn -0.855385 -0.011514 -0.517865
vn -0.981380 -0.035416 -0.188784
vn -0.981380 -0.035416 -0.188784
vn -0.981380 -0.035416 -0.188784
vn 0.199754 -0.641129 0.740980
vn 0.199754 -0.641129 0.740980
vn 0.199754 -0.641129 0.740980
vn 0.369177 -0.655518 0.658790
vn 0.369177 -0.655518 0.658790
vn 0.369177 -0.655518 0.658790
vn 0.506857 -0.338975 0.792586
vn 0.506857 -0.338975 0.792586
vn 0.506857 -0.338975 0.792586
vn 0.604149 -0.522854 0.601355
vn 0.604149 -0.522854 0.601355
vn 0.604149 -0.522854 0.601355
vn 0.744459 -0.552286 0.375180
vn 0.744459 -0.552286 0.375180
vn 0.744459 -0.552286 0.375180
vn 0.598146 -0.772693 0.212527
vn 0.598146 -0.772693 0.212527
vn 0.598146 -0.772693 0.212527
vn 0.527109 0.818956 0.226865
vn 0.527109 0.818956 0.226865
vn 0.527109 0.818955 0.226865
vn -0.682203 0.730941 -0.018020
vn -0.682203 0.730941 -0.018020
vn -0.682203 0.730941 -0.018020
vn -0.703929 0.700256 0.118850
vn -0.703929 0.700256 0.118850
vn -0.703929 0.700256 0.118850
vn -0.748590 -0.650670 -0.127442
vn -0.748590 -0.650670 -0.127442
vn -0.748590 -0.650670 -0.127442
vn -0.821719 -0.567937 -0.047179
vn -0.821719 -0.567937 -0.047179
vn -0.821719 -0.567937 -0.047179
vn -0.834326 -0.525764 -0.165749
vn -0.834326 -0.525764 -0.165749
vn -0.834326 -0.525764 -0.165749
vn -0.667378 -0.741077 0.073560
vn -0.667378 -0.741078 0.073560
vn -0.667378 -0.741078 0.073560
vn -0.459835 -0.873672 0.158901
vn -0.459835 -0.873672 0.158901
vn -0.459835 -0.873672 0.158901
vn -0.808739 -0.487777 0.328657
vn -0.808739 -0.487777 0.328657
vn -0.808739 -0.487777 0.328657
vn -0.841805 -0.438771 0.314396
vn -0.841805 -0.438771 0.314396
vn -0.841805 -0.438771 0.314396
vn -0.801691 -0.482530 0.352783
vn -0.801691 -0.482530 0.352783
vn -0.801691 -0.482530 0.352783
vn -0.967546 -0.051914 0.247303
vn -0.967546 -0.051914 0.247303
vn -0.967546 -0.051914 0.247303
vn -0.866991 0.497173 -0.033851
vn -0.866991 0.497173 -0.033851
vn -0.866991 0.497173 -0.033851
vn -0.869519 0.481653 -0.109302
vn -0.869519 0.481653 -0.109302
vn -0.869519 0.481653 -0.109302
vn -0.981139 0.034279 0.190239
vn -0.981139 0.034279 0.190239
vn -0.981139 0.034279 0.190239
vn 0.960698 -0.233543 -0.150060
vn 0.960698 -0.233543 -0.150060
vn 0.960698 -0.233543 -0.150060
vn 0.934694 0.341834 -0.097453
vn 0.934694 0.341834 -0.097453
vn 0.934694 0.341834 -0.097453
vn -0.055884 0.992933 0.104697
vn -0.055884 0.992933 0.104697
vn -0.055884 0.992933 0.104697
vn 0.344114 0.937518 -0.051436
vn 0.344114 0.937518 -0.051436
vn 0.344114 0.937518 -0.051436
vn 0.086427 0.992971 -0.080859
vn 0.086427 0.992971 -0.080859
vn 0.086427 0.992971 -0.080859
vn -0.752330 0.283084 0.594864
vn -0.752330 0.283084 0.594864
vn -0.752330 0.283084 0.594864
vn -0.601039 0.661157 0.449025
vn -0.601039 0.661158 0.449025
vn -0.601039 0.661158 0.449025
vn -0.692192 0.566989 0.446537
vn -0.692192 0.566989 0.446537
vn -0.692192 0.566989 0.446536
vn -0.931004 0.290311 -0.221251
vn -0.931003 0.290311 -0.221251
vn -0.931004 0.290311 -0.221251
vn -0.822282 0.557729 -0.113094
vn -0.822282 0.557729 -0.113094
vn -0.822282 0.557729 -0.113094
vn -0.933780 0.327774 0.143594
vn -0.933780 0.327774 0.143594
vn -0.933780 0.327774 0.143594
vn -0.095952 0.995006 -0.027506
vn -0.095952 0.995006 -0.027506
vn -0.095952 0.995006 -0.027506
vn -0.705924 0.438886 -0.555923
vn -0.705924 0.438886 -0.555923
vn -0.705924 0.438886 -0.555923
vn 0.732327 0.653251 -0.192251
vn 0.732327 0.653251 -0.192251
vn 0.732327 0.653251 -0.192251
vn 0.564586 0.686646 -0.457995
vn 0.564586 0.686646 -0.457995
vn 0.564586 0.686646 -0.457995
vn 0.899340 0.431278 -0.072029
vn 0.899340 0.431278 -0.072029
vn 0.899340 0.431278 -0.072029
vn 0.765285 0.635876 -0.100003
vn 0.765285 0.635876 -0.100003
vn 0.765285 0.635876 -0.100003
vn 0.395923 0.637319 0.661113
vn 0.395923 0.637319 0.661113
vn 0.395923 0.637319 0.661113
vn -0.657578 0.748781 0.083180
vn -0.657578 0.748781 0.083180
vn -0.657578 0.748781 0.083180
vn 0.135254 -0.774839 0.617520
vn 0.135254 -0.774839 0.617520
vn 0.135254 -0.774839 0.617520
vn 0.255510 -0.743275 0.618269
vn 0.255510 -0.743275 0.618269
vn 0.255510 -0.743275 0.618269
vn 0.063055 -0.862717 -0.501740
vn 0.063055 -0.862717 -0.501740
vn 0.063055 -0.862717 -0.501740
vn 0.196706 -0.967582 -0.158402
vn 0.196706 -0.967582 -0.158402
vn 0.196706 -0.967582 -0.158402
vn 0.270742 0.767912 0.580525
vn 0.270742 0.767912 0.580525
vn 0.270742 0.767912 0.580525
vn -0.649779 0.437104 -0.621874
vn -0.649779 0.437104 -0.621874
vn -0.649779 0.437104 -0.621874
vn -0.555028 -0.433536 -0.709922
vn -0.555028 -0.433536 -0.709922
vn -0.555028 -0.433536 -0.709922
vn -0.234940 0.477233 -0.846789
vn -0.234940 0.477233 -0.846789
vn -0.234940 0.477233 -0.846789
vn -0.547925 0.289472 -0.784847
vn -0.547925 0.289472 -0.784847
vn -0.547925 0.289472 -0.784847
vn -0.884148 -0.379619 -0.272344
vn -0.884148 -0.379619 -0.272344
vn -0.884148 -0.379619 -0.272344
s off
g pPlatonic2
usemtl initialShadingGroup
f 47//1 37//2 20//3
f 8//4 2//5 6//6
f 1//7 45//8 46//9
f 40//10 24//11 4//12
f 18//13 31//14 21//15
f 18//16 8//17 31//18
f 18//19 25//20 2//21
f 18//22 41//23 25//24
f 17//25 3//26 5//27
f 3//28 16//29 4//30
f 5//31 4//32 24//33
f 43//34 5//35 24//36
f 16//37 39//38 6//39
f 6//40 2//41 16//42
f 36//43 45//44 1//45
f 38//46 42//47 33//48
f 38//49 36//50 1//51
f 38//52 1//53 42//54
f 3//55 17//56 39//57
f 18//58 2//59 8//60
f 14//61 13//62 28//63
f 15//64 9//65 7//66
f 2//67 4//68 16//69
f 37//70 9//71 15//72
f 28//73 13//74 49//75
f 28//76 11//77 10//78
f 28//79 49//80 11//81
f 49//82 20//83 11//84
f 28//85 10//86 12//87
f 15//88 32//89 10//90
f 11//91 20//92 37//93
f 10//94 11//95 37//96
f 13//97 25//98 41//99
f 10//100 37//101 15//102
f 16//103 3//104 39//105
f 42//106 46//107 8//108
f 8//109 6//110 42//111
f 42//112 6//113 39//114
f 29//115 9//116 47//117
f 18//118 22//119 41//120
f 22//121 19//122 41//123
f 17//124 43//125 48//126
f 17//127 5//128 43//129
f 43//130 44//131 27//132
f 49//133 19//134 20//135
f 20//136 22//137 47//138
f 19//139 22//140 20//141
f 47//142 22//143 29//144
f 29//145 22//146 21//147
f 22//148 18//149 21//150
f 45//151 7//152 9//153
f 33//154 23//155 38//156
f 23//157 35//158 32//159
f 24//160 25//161 26//162
f 24//163 40//164 25//165
f 24//166 26//167 44//168
f 25//169 14//170 26//171
f 13//172 14//173 25//174
f 14//175 28//176 26//177
f 28//178 12//179 26//180
f 12//181 44//182 26//183
f 12//184 30//185 44//186
f 35//187 23//188 27//189
f 23//190 48//191 27//192
f 44//193 30//194 27//195
f 29//196 21//197 31//198
f 31//199 46//200 29//201
f 38//202 32//203 7//204
f 36//205 7//206 45//207
f 7//208 36//209 38//210
f 12//211 10//212 30//213
f 10//214 35//215 30//216
f 32//217 35//218 10//219
f 27//220 48//221 43//222
f 23//223 33//224 48//225
f 27//226 30//227 35//228
f 33//229 42//230 34//231
f 33//232 17//233 48//234
f 46//235 42//236 1//237
f 31//238 8//239 46//240
f 29//241 46//242 9//243
f 9//244 46//245 45//246
f 47//247 9//248 37//249
f 23//250 32//251 38//252
f 49//253 41//254 19//255
f 49//256 13//257 41//258
f 2//259 40//260 4//261
f 40//262 2//263 25//264
f 32//265 15//266 7//267
f 34//268 17//269 33//270
f 4//271 5//272 3//273
f 39//274 34//275 42//276
f 39//277 17//278 34//279
f 24//280 44//281 43//282
