# This file uses centimeters as units for non-parametric coordinates.

mtllib CardboardBox2.mtl
g default
v 3.470730 -0.007065 0.293642
v 3.683919 -0.007065 0.293642
v 3.470730 0.992935 0.293642
v 3.683919 0.992935 0.293642
v 3.470730 0.992935 -0.706358
v 3.683919 0.992935 -0.706358
v 3.470730 -0.007065 -0.706358
v 3.683919 -0.007065 -0.706358
v 3.655902 -0.007065 0.293642
v 3.655902 -0.007065 -0.706358
v 3.655902 0.992935 -0.706358
v 3.655902 0.992935 0.293642
v 3.470730 0.992935 -0.680551
v 3.664111 0.992935 -0.680552
v 3.683919 0.992935 -0.680551
v 3.683919 -0.007065 -0.680552
v 3.655902 -0.007065 -0.680551
v 3.470730 -0.007065 -0.680552
v 3.492944 -0.007065 0.293642
v 3.492944 -0.007065 -0.680552
v 3.492944 -0.007065 -0.706358
v 3.492944 0.992935 -0.706358
v 3.492944 0.992935 -0.680552
v 3.492944 0.992935 0.293642
v 3.470730 0.992935 0.270655
v 3.492944 0.992935 0.270655
v 3.664111 0.992935 0.270654
v 3.683919 0.992935 0.270655
v 3.683919 -0.007065 0.270654
v 3.655902 -0.007065 0.270655
v 3.492944 -0.007065 0.270655
v 3.470730 -0.007065 0.270654
v 3.492944 0.034600 -0.680552
v 3.492944 0.034600 0.270655
v 3.655902 0.034600 0.270654
v 3.655902 0.034600 -0.680552
v 3.667748 1.008338 -0.680552
v 3.681201 1.024923 -0.680551
v 3.667748 1.008338 0.270654
v 3.681201 1.024923 0.270655
v 3.541550 1.178752 -0.680552
v 3.554968 1.194560 -0.680551
v 3.541550 1.178752 0.270654
v 3.554968 1.194560 0.270655
v 3.527504 1.186902 -0.680552
v 3.526422 1.206110 -0.680551
v 3.527504 1.186902 0.270654
v 3.526422 1.206110 0.270655
v 3.487927 1.154984 -0.654125
v 3.472759 1.162951 -0.654125
v 3.487927 1.154984 0.244228
v 3.472759 1.162951 0.244228
v 3.521073 1.031990 -0.634294
v 3.521073 1.018476 -0.625567
v 3.627774 1.018476 -0.625567
v 3.627774 1.031990 -0.634294
v 3.521073 1.018476 0.215263
v 3.627774 1.018476 0.215263
v 3.521073 1.031990 0.221577
v 3.627774 1.031990 0.221577
vt 0.375000 0.000000
vt 0.625000 0.000000
vt 0.375000 0.250000
vt 0.625000 0.250000
vt 0.375000 0.500000
vt 0.625000 0.500000
vt 0.375000 0.750000
vt 0.625000 0.750000
vt 0.375000 1.000000
vt 0.625000 1.000000
vt 0.875000 0.000000
vt 0.875000 0.250000
vt 0.125000 0.000000
vt 0.125000 0.250000
vt 0.592145 0.000000
vt 0.592145 1.000000
vt 0.592145 0.750000
vt 0.592145 0.500000
vt 0.592145 0.250000
vt 0.131452 0.250000
vt 0.375000 0.493548
vt 0.592145 0.493548
vt 0.625000 0.493548
vt 0.868548 0.250000
vt 0.625000 0.756452
vt 0.868548 0.000000
vt 0.592145 0.756452
vt 0.131452 0.000000
vt 0.375000 0.756452
vt 0.401050 0.000000
vt 0.401050 1.000000
vt 0.401050 0.756452
vt 0.401050 0.750000
vt 0.401050 0.500000
vt 0.401050 0.493548
vt 0.401050 0.250000
vt 0.369253 0.250000
vt 0.375000 0.255747
vt 0.401050 0.255747
vt 0.592145 0.255747
vt 0.625000 0.255747
vt 0.630747 0.250000
vt 0.625000 0.994253
vt 0.630747 0.000000
vt 0.592145 0.994253
vt 0.401050 0.994253
vt 0.369253 0.000000
vt 0.375000 0.994253
vt 0.401050 0.493548
vt 0.401050 0.255747
vt 0.592145 0.255747
vt 0.592145 0.493548
vt 0.625000 0.493548
vt 0.592145 0.493548
vt 0.592145 0.255747
vt 0.625000 0.255747
vt 0.625000 0.493548
vt 0.592145 0.493548
vt 0.592145 0.255747
vt 0.625000 0.255747
vt 0.625000 0.493548
vt 0.592145 0.493548
vt 0.592145 0.255747
vt 0.625000 0.255747
vt 0.625000 0.493548
vt 0.592145 0.493548
vt 0.592145 0.255747
vt 0.625000 0.255747
vt 0.401050 0.500000
vt 0.401050 0.493548
vt 0.592145 0.493548
vt 0.592145 0.500000
vt 0.592145 0.255747
vt 0.401050 0.255747
vt 0.401050 0.250000
vt 0.592145 0.250000
vn 0.000000 0.000000 1.000000
vn 0.000000 0.000000 1.000000
vn 0.000000 0.000000 1.000000
vn 0.000000 0.000000 1.000000
vn 0.000000 1.000000 0.000000
vn 0.000000 1.000000 0.000000
vn 0.000000 1.000000 0.000000
vn 0.000000 1.000000 0.000000
vn 0.000000 0.000000 -1.000000
vn 0.000000 0.000000 -1.000000
vn 0.000000 0.000000 -1.000000
vn 0.000000 0.000000 -1.000000
vn 0.000000 -1.000000 0.000000
vn 0.000000 -1.000000 -0.000000
vn 0.000000 -1.000000 0.000001
vn 0.000000 -1.000000 0.000000
vn 1.000000 0.000000 0.000000
vn 1.000000 0.000000 0.000000
vn 1.000000 0.000000 0.000000
vn 1.000000 0.000000 0.000000
vn -1.000000 0.000000 0.000000
vn -1.000000 0.000000 0.000000
vn -1.000000 0.000000 0.000000
vn -1.000000 0.000000 0.000000
vn 0.000000 -1.000000 0.000000
vn 0.000000 -1.000000 0.000001
vn 0.000000 0.000000 -1.000000
vn 0.000000 0.000000 -1.000000
vn 0.000001 0.542484 0.840066
vn 0.000001 0.542484 0.840066
vn 0.000001 0.542484 0.840066
vn 0.000001 0.542484 0.840066
vn 0.000000 0.000000 1.000000
vn 0.000000 0.000000 1.000000
vn 0.000000 1.000000 0.000000
vn 0.000000 1.000000 0.000000
vn 0.000000 1.000000 0.000000
vn 0.000000 1.000000 0.000000
vn -0.465042 -0.885289 0.000000
vn -0.465042 -0.885289 0.000000
vn -0.465042 -0.885289 0.000000
vn -0.465042 -0.885289 0.000000
vn 1.000000 0.000000 0.000000
vn 1.000000 0.000000 0.000000
vn 0.000000 -1.000000 0.000000
vn 0.000000 -1.000000 -0.000000
vn 0.000000 -1.000000 -0.000000
vn -1.000000 0.000000 0.000000
vn -1.000000 0.000000 0.000000
vn 0.000000 -1.000000 0.000000
vn 0.000000 -1.000000 0.000000
vn 0.000000 -1.000000 0.000000
vn 0.000000 0.000000 -1.000000
vn 0.000000 0.000000 -1.000000
vn 0.000000 1.000000 0.000000
vn 0.000000 1.000000 0.000000
vn 0.000000 1.000000 0.000000
vn 0.000000 1.000000 0.000000
vn 0.000000 1.000000 0.000000
vn 0.000000 1.000000 0.000000
vn 0.000000 0.000000 1.000000
vn 0.000000 0.000000 1.000000
vn 0.000000 1.000000 0.000000
vn 0.000000 1.000000 0.000000
vn -0.000000 0.423277 -0.906001
vn -0.000000 0.423277 -0.906001
vn -0.000000 0.423277 -0.906001
vn -0.000000 0.423277 -0.906001
vn 0.000000 1.000000 0.000000
vn 0.000000 1.000000 0.000000
vn 0.000000 1.000000 0.000000
vn 0.000000 1.000000 0.000000
vn 1.000000 0.000000 0.000000
vn 1.000000 0.000000 0.000000
vn 0.000000 -1.000000 0.000000
vn 0.000000 -1.000000 0.000000
vn 0.000000 -1.000000 0.000000
vn 0.000000 -1.000000 0.000000
vn -1.000000 0.000000 0.000000
vn -1.000000 0.000000 0.000000
vn 1.000000 0.000000 0.000000
vn 1.000000 0.000000 0.000000
vn 1.000000 0.000000 0.000000
vn 1.000000 0.000000 0.000000
vn -0.000001 0.000000 -1.000000
vn -0.000001 0.000000 -1.000000
vn -0.000001 0.000000 -1.000000
vn -0.000001 0.000000 -1.000000
vn -0.999963 0.008566 0.000000
vn -0.999963 0.008566 0.000000
vn -0.999963 0.008566 0.000000
vn -0.999963 0.008566 0.000000
vn 0.000001 -0.000000 1.000000
vn 0.000001 -0.000000 1.000000
vn 0.000001 -0.000000 1.000000
vn 0.000001 -0.000000 1.000000
vn 0.000029 -0.000001 -1.000000
vn 0.000029 -0.000001 -1.000000
vn 0.000020 0.000013 -1.000000
vn 0.000021 0.000011 -1.000000
vn -0.973240 0.229790 0.000000
vn -0.973240 0.229790 0.000000
vn -0.973240 0.229790 0.000000
vn -0.973240 0.229790 0.000000
vn -0.000023 0.000000 1.000000
vn -0.000023 0.000000 1.000000
vn -0.000014 -0.000008 1.000000
vn -0.000013 -0.000010 1.000000
vn 0.996409 0.084669 0.000000
vn 0.996409 0.084669 0.000000
vn 0.996409 0.084669 0.000000
vn 0.996409 0.084669 0.000000
vn 0.000016 0.000017 -1.000000
vn 0.000019 0.000014 -1.000000
vn -0.803636 -0.595121 0.000000
vn -0.803636 -0.595121 0.000000
vn -0.786439 -0.617668 0.000000
vn -0.786439 -0.617668 0.000000
vn -0.000012 -0.000011 1.000000
vn -0.000010 -0.000013 1.000000
vn 0.802252 0.596986 0.000000
vn 0.802252 0.596986 0.000000
vn 0.760343 0.649522 0.000000
vn 0.760343 0.649522 0.000000
vn -0.229317 -0.137094 -0.963649
vn -0.270666 -0.161817 -0.948976
vn -0.501835 -0.864964 0.000000
vn -0.501835 -0.864964 0.000000
vn -0.270647 -0.161856 0.948975
vn -0.229304 -0.137134 0.963646
vn -0.336878 0.941548 0.000000
vn -0.336878 0.941548 0.000000
vn -0.349488 -0.208946 -0.913345
vn -0.349488 -0.208946 -0.913345
vn 0.627758 -0.778409 0.000000
vn 0.627758 -0.778409 0.000000
vn 0.627758 -0.778409 0.000000
vn 0.627758 -0.778409 0.000000
vn -0.349459 -0.208985 0.913347
vn -0.349459 -0.208985 0.913347
vn -0.626709 0.779254 0.000000
vn -0.626709 0.779254 0.000000
vn -0.884133 0.435104 0.170275
vn -0.884133 0.435104 0.170275
vn -0.884133 0.435104 0.170275
vn -0.884133 0.435104 0.170275
vn 0.000001 -0.906934 0.421272
vn 0.000001 -0.906934 0.421272
vn 0.000001 -0.906934 0.421272
vn 0.000001 -0.906934 0.421272
vn 0.768491 0.636409 0.066375
vn 0.768491 0.636409 0.066375
vn 0.768491 0.636409 0.066375
vn 0.768491 0.636409 0.066375
vn 0.000000 0.879188 -0.476475
vn 0.000000 0.879188 -0.476475
vn 0.000000 0.879188 -0.476475
vn 0.000000 0.879188 -0.476475
vn -0.000000 -0.908113 -0.418725
vn -0.000000 -0.908113 -0.418725
vn -0.000000 -0.908113 -0.418725
vn -0.000000 -0.908113 -0.418725
vn -0.893668 0.407475 -0.187943
vn -0.893668 0.407475 -0.187943
vn -0.893668 0.407475 -0.187943
vn -0.893668 0.407475 -0.187943
vn 0.000000 0.879188 0.476475
vn 0.000000 0.879188 0.476475
vn 0.000000 0.879188 0.476475
vn 0.000000 0.879188 0.476475
vn 0.774265 0.628634 -0.073024
vn 0.774265 0.628634 -0.073024
vn 0.774265 0.628634 -0.073024
vn 0.774265 0.628634 -0.073024
s 1
g pCube4
usemtl initialShadingGroup
f 12/19/1 9/15/2 2/2/3 4/4/4
s off
f 11/18/5 14/22/6 15/23/7 6/6/8
s 2
f 10/17/9 11/18/10 6/6/11 8/8/12
s 3
f 16/25/13 17/27/14 10/17/15 8/8/16
s 4
f 15/24/17 16/26/18 8/11/19 6/12/20
s 5
f 7/13/21 18/28/22 13/20/23 5/14/24
s 3
f 20/32/25 21/33/26 10/17/15 17/27/14
s 2
f 21/33/27 22/34/28 11/18/10 10/17/9
s off
f 53/69/29 54/70/30 55/71/31 56/72/32
s 1
f 24/36/33 19/30/34 9/15/2 12/19/1
s off
f 33/49/35 34/50/36 35/51/37 36/52/38
f 50/65/39 49/66/40 51/67/41 52/68/42
s 4
f 28/42/43 29/44/44 16/26/18 15/24/17
s 3
f 29/43/45 30/45/46 17/27/14 16/25/13
f 30/45/46 31/46/47 20/32/25 17/27/14
s 5
f 13/20/23 18/28/22 32/47/48 25/37/49
s 3
f 18/29/50 20/32/25 31/46/47 32/48/51
f 7/7/52 21/33/26 20/32/25 18/29/50
s 2
f 5/5/53 22/34/28 21/33/27 7/7/54
s 6
f 13/21/55 23/35/56 22/34/57 5/5/58
f 25/38/59 26/39/60 23/35/56 13/21/55
s 1
f 1/1/61 19/30/34 24/36/33 3/3/62
s 6
f 3/3/63 24/36/64 26/39/60 25/38/59
s off
f 58/73/65 57/74/66 59/75/67 60/76/68
f 28/41/69 27/40/70 12/19/71 4/4/72
s 4
f 2/2/73 29/44/44 28/42/43 4/4/74
s 3
f 9/16/75 30/45/46 29/43/45 2/10/76
f 19/31/77 31/46/47 30/45/46 9/16/75
f 32/48/51 31/46/47 19/31/77 1/9/78
s 5
f 25/37/49 32/47/48 1/1/79 3/3/80
s off
f 23/35/81 26/39/82 34/50/83 33/49/84
f 26/39/85 27/40/86 35/51/87 34/50/88
f 27/40/89 14/22/90 36/52/91 35/51/92
f 14/22/93 23/35/94 33/49/95 36/52/96
s 7
f 15/23/97 14/22/98 37/54/99 38/53/100
s off
f 14/22/101 27/40/102 39/55/103 37/54/104
s 8
f 27/40/105 28/41/106 40/56/107 39/55/108
s off
f 28/41/109 15/23/110 38/53/111 40/56/112
s 7
f 38/53/100 37/54/99 41/58/113 42/57/114
s 9
f 37/54/115 39/55/116 43/59/117 41/58/118
s 8
f 39/55/108 40/56/107 44/60/119 43/59/120
s 10
f 40/56/121 38/53/122 42/57/123 44/60/124
s 7
f 42/57/114 41/58/113 45/62/125 46/61/126
s 9
f 41/58/118 43/59/117 47/63/127 45/62/128
s 8
f 43/59/120 44/60/119 48/64/129 47/63/130
s 10
f 44/60/124 42/57/123 46/61/131 48/64/132
s 7
f 46/61/126 45/62/125 49/66/133 50/65/134
s off
f 45/62/135 47/63/136 51/67/137 49/66/138
s 8
f 47/63/130 48/64/129 52/68/139 51/67/140
s 10
f 48/64/132 46/61/131 50/65/141 52/68/142
s off
f 22/34/143 23/35/144 54/70/145 53/69/146
f 23/35/147 14/22/148 55/71/149 54/70/150
f 14/22/151 11/18/152 56/72/153 55/71/154
f 11/18/155 22/34/156 53/69/157 56/72/158
f 27/40/159 26/39/160 57/74/161 58/73/162
f 26/39/163 24/36/164 59/75/165 57/74/166
f 24/36/167 12/19/168 60/76/169 59/75/170
f 12/19/171 27/40/172 58/73/173 60/76/174
