# This file uses centimeters as units for non-parametric coordinates.

mtllib Plank1.mtl
g default
v -3.844123 -0.119985 0.535410
v 3.844123 -0.119985 0.535410
v -3.844123 0.119985 0.535410
v 3.844123 0.119985 0.535410
v -3.844123 0.119985 -0.535410
v 3.844123 0.119985 -0.535410
v -3.844123 -0.119985 -0.535410
v 3.844123 -0.119985 -0.535410
v -3.928801 0.119985 -0.052145
v 3.627897 0.031635 -0.092622
v 3.627897 -0.208336 -0.092622
v -3.928801 -0.119985 -0.052145
v -3.844123 0.119985 -0.337699
v -3.163550 0.031635 -0.092622
v -3.844123 -0.119985 -0.340316
v -3.298891 -0.208336 -0.092622
v -3.152814 0.119985 -0.535410
v -3.164049 -0.119985 -0.535410
v -3.235448 -0.119985 0.535410
v -3.214866 0.119985 0.535410
vt 0.622696 0.026389
vt 0.189590 0.899785
vt 0.569458 0.836027
vt 0.576562 0.959499
vt 0.311858 0.108680
vt 0.443061 0.829110
vt 0.072966 0.895743
vt 0.283365 0.109886
vt 0.875212 0.236721
vt 0.879458 0.124635
vt 0.434830 0.127228
vt 0.788454 0.955837
vt 0.847831 0.959263
vt 0.073737 0.033351
vt 0.531426 0.080084
vt 0.189590 0.022026
vt 0.518810 0.121426
vt 0.531401 0.031207
vt 0.785087 0.236019
vt 0.836771 0.129057
vt 0.656549 0.245673
vt 0.703499 0.960520
vt 0.110099 0.897773
vt 0.661478 0.050221
vt 0.314669 0.066963
vt 0.346532 0.056165
vt 0.774339 0.118505
vt 0.650160 0.144760
vt 0.742733 0.042945
vt 0.308824 0.317998
vt 0.228458 0.898491
vt 0.864844 0.056898
vt 0.354651 0.848073
vt 0.376044 0.123957
vt 0.393774 0.956920
vt 0.450993 0.070258
vt 0.351294 0.961722
vt 0.454643 0.989252
vt 0.751823 0.080500
vt 0.244944 0.976509
vt 0.279881 0.320820
vt 0.206076 0.975248
vt 0.286523 0.068154
vt 0.622722 0.075266
vt 0.857160 0.019992
vt 0.671360 0.087418
vt 0.110871 0.033995
vt 0.228458 0.023292
vt 0.344244 0.097863
vt 0.453683 0.021236
vt 0.284414 0.214928
vt 0.314514 0.212934
vn 0.000000 0.000000 1.000000
vn 0.000000 0.000000 1.000000
vn 0.000000 0.000000 1.000000
vn 0.000000 0.000000 1.000000
vn 0.039235 0.989768 0.137186
vn 0.000617 0.980850 0.194762
vn 0.002611 0.981428 0.191813
vn 0.039235 0.989768 0.137186
vn 0.000000 0.000000 -1.000000
vn 0.000000 0.000000 -1.000000
vn 0.000000 0.000000 -1.000000
vn 0.000000 0.000000 -1.000000
vn 0.898583 0.000000 0.438804
vn 0.898583 0.000000 0.438804
vn 0.898583 0.000000 0.438804
vn 0.898583 0.000000 0.438804
vn 0.060916 0.995395 -0.074018
vn 0.005449 0.991032 -0.133511
vn 0.003295 0.990730 -0.135804
vn 0.060916 0.995395 -0.074018
vn 0.945529 0.000000 -0.325537
vn 0.945529 0.000000 -0.325537
vn 0.945529 0.000000 -0.325537
vn 0.945529 0.000000 -0.325537
vn -0.068299 -0.994404 0.080597
vn -0.003316 -0.990637 0.136482
vn -0.005310 -0.990861 0.134783
vn -0.068299 -0.994404 0.080597
vn -0.989774 0.000000 0.142645
vn -0.989774 0.000000 0.142645
vn -0.989774 0.000000 0.142645
vn -0.989774 0.000000 0.142645
vn -1.000000 0.000000 0.000000
vn -1.000000 0.000000 0.000000
vn -1.000000 0.000000 0.000000
vn -1.000000 0.000000 0.000000
vn -0.041809 -0.988439 -0.145743
vn -0.002476 -0.981246 -0.192742
vn -0.000599 -0.980810 -0.194966
vn -0.041809 -0.988439 -0.145743
vn -0.359280 0.096255 0.928253
vn -0.359280 0.096255 0.928253
vn -0.359280 0.096255 0.928253
vn -0.359280 0.096255 0.928253
vn -0.055929 0.015772 -0.998310
vn -0.055929 0.015772 -0.998310
vn -0.055929 0.015772 -0.998310
vn -0.055929 0.015772 -0.998310
vn 0.000000 0.980669 0.195675
vn 0.000000 0.980669 0.195675
vn 0.000000 0.000000 -1.000000
vn 0.000000 0.000000 -1.000000
vn 0.000000 -0.980669 -0.195675
vn 0.000000 -0.980669 -0.195675
vn 0.000000 -0.990249 0.139306
vn 0.000000 -0.990249 0.139306
vn 0.000000 0.000000 1.000000
vn 0.000000 0.000000 1.000000
vn 0.000000 0.990249 -0.139306
vn 0.000000 0.990249 -0.139306
s 1
g pCube1
usemtl initialShadingGroup
f 1/42/1 19/2/2 20/31/3 3/40/4
s 2
f 13/35/5 14/6/6 17/33/7 5/37/8
s 3
f 5/41/9 17/51/10 18/52/11 7/30/12
s off
f 10/39/13 11/29/14 8/24/15 6/46/16
s 4
f 3/4/17 20/3/18 14/6/19 9/38/20
s off
f 2/45/21 11/29/22 10/39/23 4/32/24
s 5
f 12/27/25 16/19/26 19/21/27 1/28/28
s off
f 9/15/29 12/18/30 1/1/31 3/44/32
f 7/43/33 15/25/34 13/5/35 5/8/36
s 6
f 7/10/37 18/9/38 16/19/39 15/20/40
s off
f 14/49/41 13/5/42 15/25/43 16/26/44
f 9/15/45 14/36/46 16/50/47 12/18/48
s 2
f 17/33/7 14/6/6 10/11/49 6/34/50
s 3
f 18/23/11 17/7/10 6/14/51 8/47/52
s 6
f 16/19/39 18/9/38 8/13/53 11/12/54
s 5
f 19/21/27 16/19/26 11/12/55 2/22/56
s 1
f 20/31/3 19/2/2 2/16/57 4/48/58
s 4
f 14/6/19 20/3/18 4/17/59 10/11/60
