# This file uses centimeters as units for non-parametric coordinates.

mtllib Plank3.mtl
g default
v -3.548272 -0.116132 4.240277
v 3.289934 -0.116132 4.163570
v -3.548272 0.116132 4.240277
v 3.289934 0.116132 4.163570
v -3.788036 0.116132 3.240277
v 3.788036 0.116132 3.240277
v -3.788036 -0.116132 3.240277
v 3.788036 -0.116132 3.240277
v -2.374644 -0.116132 4.162821
v -2.374644 -0.116132 3.162821
v -2.374644 0.116132 3.162821
v -2.374644 0.116132 4.162821
v -0.911470 -0.116132 4.240277
v -0.911470 0.116132 4.240277
v -0.911470 0.116132 3.240277
v -0.911470 -0.116132 3.240277
v 0.726835 -0.116132 4.315354
v 0.726835 0.116132 4.315354
v 0.726835 0.116132 3.315354
v 0.726835 -0.116132 3.315354
v 2.626907 -0.116132 4.240277
v 2.626907 0.116132 4.240277
v 2.626907 0.116132 3.240277
v 2.626907 -0.116132 3.240277
v -3.548272 0.116132 4.002876
v -2.339182 0.119929 3.865046
v -0.876008 0.119929 3.942503
v 0.762296 0.119929 4.017580
v 2.662369 0.119929 3.942503
v 3.823498 0.119929 3.942503
v 3.823498 -0.112336 3.942503
v 2.662369 -0.112336 3.942503
v 0.762296 -0.112336 4.017580
v -0.876008 -0.112336 3.942503
v -2.339182 -0.112336 3.865046
v -3.548272 -0.116132 4.002876
v -3.813731 -0.110165 3.332418
v -2.304480 -0.161118 3.413264
v -0.841305 -0.161118 3.490720
v 0.796999 -0.161118 3.565797
v 2.697072 -0.161118 3.490720
v 3.919856 -0.116132 3.454208
v 3.919856 0.116132 3.454208
v 2.697072 0.071147 3.490720
v 0.796999 0.071147 3.565797
v -0.841305 0.071147 3.490720
v -2.304480 0.071147 3.413264
v -3.813731 0.122100 3.332418
v -3.242212 0.071147 3.436077
v -3.601927 0.006019 3.540604
v -3.717872 -0.161118 3.552652
v -3.289471 -0.161118 3.433323
v -3.327835 0.009913 3.946679
v -3.601927 0.006019 3.778495
v -3.717872 -0.161118 3.769091
v -3.465195 -0.112336 3.942503
v 3.953990 0.071147 3.625967
v 3.954386 0.071147 3.624483
v 3.362552 0.071147 3.490720
v 3.951505 -0.161118 3.635294
v 3.270819 -0.161118 3.490720
v -3.226612 0.116132 3.209510
v -3.224911 -0.116132 3.209417
v -3.390675 -0.116132 4.229876
v -3.378907 0.116132 4.229099
vt 0.375000 0.000000
vt 0.625000 0.000000
vt 0.375000 0.250000
vt 0.625000 0.250000
vt 0.375000 0.500000
vt 0.625000 0.500000
vt 0.375000 0.750000
vt 0.625000 0.750000
vt 0.375000 1.000000
vt 0.625000 1.000000
vt 0.875000 0.000000
vt 0.875000 0.250000
vt 0.125000 0.000000
vt 0.125000 0.250000
vt 0.421640 0.000000
vt 0.421640 1.000000
vt 0.421640 0.750000
vt 0.421640 0.500000
vt 0.421640 0.250000
vt 0.469923 0.000000
vt 0.469923 1.000000
vt 0.469923 0.250000
vt 0.469923 0.500000
vt 0.469923 0.750000
vt 0.523985 0.000000
vt 0.523985 1.000000
vt 0.523985 0.250000
vt 0.523985 0.500000
vt 0.523985 0.750000
vt 0.586684 0.000000
vt 0.586684 1.000000
vt 0.586684 0.250000
vt 0.586684 0.500000
vt 0.586684 0.750000
vt 0.338592 0.286408
vt 0.421640 0.322815
vt 0.469923 0.322815
vt 0.523985 0.322815
vt 0.586684 0.322815
vt 0.625000 0.322815
vt 0.697815 0.250000
vt 0.625000 0.927185
vt 0.697815 0.000000
vt 0.586684 0.927185
vt 0.523985 0.927185
vt 0.469923 0.927185
vt 0.421640 0.927185
vt 0.338592 0.463592
vt 0.276741 0.401741
vt 0.421640 0.803483
vt 0.469923 0.803483
vt 0.523985 0.803483
vt 0.586684 0.803483
vt 0.723259 0.401741
vt 0.723259 0.348259
vt 0.586684 0.446517
vt 0.523985 0.446517
vt 0.469923 0.446517
vt 0.421640 0.446517
vt 0.276741 0.348259
vt 0.390696 0.446517
vt 0.290913 0.334087
vt 0.292204 0.417204
vt 0.389137 0.803483
vt 0.379691 0.322815
vt 0.316406 0.308594
vt 0.315398 0.440398
vt 0.384483 0.927185
vt 0.625000 0.412706
vt 0.787706 0.250000
vt 0.706538 0.331538
vt 0.606405 0.446517
vt 0.705187 0.419813
vt 0.603687 0.803483
vt 0.393526 0.500000
vt 0.393582 0.750000
vt 0.381263 0.000000
vt 0.381263 1.000000
vt 0.381731 0.250000
vn -0.004362 0.000000 0.999990
vn -0.004362 0.000000 0.999990
vn -0.049121 0.000000 0.998793
vn -0.049121 0.000000 0.998793
vn 0.000369 0.999984 -0.005592
vn -0.014259 0.998968 0.043132
vn -0.019420 0.997300 -0.070824
vn 0.002876 0.998225 -0.059493
vn 0.013313 0.000000 -0.999911
vn 0.013313 0.000000 -0.999911
vn 0.049121 0.000000 -0.998793
vn 0.049121 0.000000 -0.998793
vn -0.002876 -0.998225 0.059493
vn -0.000748 -0.997364 0.072551
vn 0.001099 -0.999922 -0.012437
vn -0.000369 -0.999984 0.005592
vn -0.054719 0.000000 -0.998502
vn -0.054719 0.000000 -0.998502
vn -0.054719 0.000000 -0.998502
vn -0.054719 0.000000 -0.998502
vn 0.065854 0.000000 0.997829
vn 0.065854 0.000000 0.997829
vn 0.065854 0.000000 0.997829
vn 0.065854 0.000000 0.997829
vn 0.000000 0.000000 1.000000
vn 0.000000 0.000000 1.000000
vn 0.000092 0.999658 -0.026153
vn -0.000020 0.998813 -0.048709
vn -0.000000 0.000000 -1.000000
vn -0.000000 0.000000 -1.000000
vn 0.000020 -0.998813 0.048709
vn -0.000092 -0.999658 0.026153
vn 0.059115 0.000000 0.998251
vn 0.059115 0.000000 0.998251
vn -0.000389 0.999997 0.002559
vn -0.000291 0.997423 -0.071751
vn -0.024518 0.000000 -0.999699
vn -0.024518 0.000000 -0.999699
vn 0.000189 -0.997403 0.072027
vn 0.000280 -0.999999 -0.001578
vn 0.114925 0.000000 0.993374
vn 0.114925 0.000000 0.993374
vn 0.006362 0.993490 -0.113743
vn -0.001445 0.999722 -0.023535
vn 0.004919 0.996693 -0.081114
vn 0.000000 0.000000 -1.000000
vn 0.000000 0.000000 -1.000000
vn 0.231011 0.957456 -0.172949
vn -0.008904 0.983164 -0.182509
vn -0.057458 0.997114 -0.049612
vn 0.231011 0.957456 -0.172949
vn -0.028524 0.997236 -0.068609
vn -0.000614 0.999919 0.012676
vn 0.000003 0.999919 0.012750
vn 0.000527 0.999913 0.013194
vn 0.000645 0.999882 0.015341
vn 0.382769 0.000000 0.923844
vn 0.669620 0.001290 0.742703
vn 0.568030 0.000809 0.823007
vn 0.382769 0.000000 0.923844
vn -0.000527 -0.999913 -0.013194
vn -0.005319 -0.996607 0.082130
vn -0.000645 -0.999882 -0.015341
vn -0.000003 -0.999919 -0.012750
vn 0.000614 -0.999919 -0.012677
vn 0.000005 -0.999918 -0.012777
vn 0.013099 -0.999873 -0.009094
vn 0.005078 -0.999093 0.042278
vn 0.001289 -0.999923 -0.012327
vn 0.013099 -0.999873 -0.009094
vn -1.000000 0.000000 0.000000
vn -1.000000 0.000000 0.000000
vn -1.000000 0.000000 0.000000
vn -1.000000 0.000000 0.000000
vn -0.037836 -0.990384 -0.133074
vn -0.013240 -0.984435 -0.175247
vn 0.003667 -0.999711 0.023761
vn -0.037836 -0.990384 -0.133074
vn 0.003229 -0.983287 -0.182031
vn 0.008939 -0.983770 -0.179213
vn 0.000188 -0.984239 -0.176846
vn 0.002490 -0.986721 -0.162403
vn 0.016471 -0.989481 -0.143719
vn 0.001232 -0.999672 0.025560
vn 0.016471 -0.989481 -0.143719
vn 0.851357 0.000000 -0.524586
vn 0.851357 0.000000 -0.524586
vn 0.851357 0.000000 -0.524586
vn 0.851357 0.000000 -0.524586
vn -0.002483 0.986325 0.164792
vn -0.016361 0.988584 0.149777
vn -0.016361 0.988584 0.149777
vn -0.000188 0.984239 0.176846
vn -0.008939 0.983770 0.179213
vn -0.003137 0.983414 0.181349
vn 0.036473 0.991348 0.126092
vn -0.041701 0.997370 0.059283
vn 0.013672 0.985063 0.171649
vn 0.036473 0.991348 0.126092
vn -0.963249 0.000000 -0.268611
vn -0.963249 0.000000 -0.268611
vn -0.963249 0.000000 -0.268611
vn -0.963249 0.000000 -0.268611
vn -0.279090 0.091800 -0.955867
vn -0.279090 0.091800 -0.955867
vn -0.279090 0.091800 -0.955867
vn -0.279090 0.091800 -0.955867
vn -0.182356 0.012724 0.983150
vn -0.182356 0.012724 0.983150
vn -0.182356 0.012724 0.983150
vn -0.182356 0.012724 0.983150
vn -0.114753 0.991067 0.067952
vn -0.114753 0.991067 0.067952
vn -0.821651 0.569990 0.000000
vn -0.821651 0.569991 0.000000
vn -0.821651 0.569991 0.000000
vn -0.821651 0.569990 0.000000
vn 0.064678 -0.994488 0.082521
vn 0.064678 -0.994488 0.082521
vn -0.522489 0.422592 0.740555
vn -0.522489 0.422592 0.740555
vn -0.522489 0.422592 0.740555
vn -0.522489 0.422592 0.740555
vn -0.315775 0.133418 -0.939407
vn -0.315775 0.133418 -0.939407
vn -0.315775 0.133418 -0.939407
vn -0.315775 0.133418 -0.939407
vn 0.000000 1.000000 0.000001
vn 0.924070 0.002730 0.382213
vn 0.924070 0.002730 0.382213
vn 0.924070 0.002730 0.382213
vn -0.006926 -0.993257 0.115723
vn 0.061319 -0.012109 0.998045
vn 0.061319 -0.012109 0.998045
vn 0.061319 -0.012109 0.998045
vn 0.061319 -0.012109 0.998045
vn 0.213210 -0.066113 -0.974767
vn 0.213210 -0.066113 -0.974767
vn 0.213210 -0.066113 -0.974767
vn 0.213210 -0.066113 -0.974767
s 1
g pCube3
usemtl initialShadingGroup
f 12/19/1 9/15/2 13/20/3 14/22/4
s 2
f 46/58/5 47/59/6 26/36/7 27/37/8
s 3
f 10/17/9 11/18/10 15/23/11 16/24/12
s 4
f 34/46/13 35/47/14 38/50/15 39/51/16
s 3
f 5/5/17 62/75/18 63/76/19 7/7/20
s 1
f 1/1/21 64/77/22 65/79/23 3/3/24
f 14/22/4 13/20/3 17/25/25 18/27/26
s 2
f 45/57/27 46/58/5 27/37/8 28/38/28
s 3
f 16/24/12 15/23/11 19/28/29 20/29/30
s 4
f 33/45/31 34/46/13 39/51/16 40/52/32
s 1
f 18/27/26 17/25/25 21/30/33 22/32/34
s 2
f 44/56/35 45/57/27 28/38/28 29/39/36
s 3
f 20/29/30 19/28/29 23/33/37 24/34/38
s 4
f 32/44/39 33/45/31 40/52/32 41/53/40
s 1
f 22/32/34 21/30/33 2/2/41 4/4/42
s 2
f 57/69/43 59/72/44 44/56/35 29/39/36 30/40/45
s 3
f 24/34/38 23/33/37 6/6/46 8/8/47
s 2
f 3/3/48 65/79/49 53/65/50 25/35/51
f 27/37/8 26/36/7 12/19/52 14/22/53
f 28/38/28 27/37/8 14/22/53 18/27/54
f 29/39/36 28/38/28 18/27/54 22/32/55
f 30/40/45 29/39/36 22/32/55 4/4/56
s 6
f 2/2/57 31/43/58 30/41/59 4/4/60
s 4
f 21/31/61 32/44/39 31/42/62 2/10/63
f 17/26/64 33/45/31 32/44/39 21/31/61
f 13/21/65 34/46/13 33/45/31 17/26/64
f 9/16/66 35/47/14 34/46/13 13/21/65
f 36/48/67 56/68/68 64/78/69 1/9/70
s off
f 25/35/71 36/48/72 1/1/73 3/3/74
s 4
f 7/7/75 63/76/76 52/64/77 37/49/78
f 39/51/16 38/50/15 10/17/79 16/24/80
f 40/52/32 39/51/16 16/24/80 20/29/81
f 41/53/40 40/52/32 20/29/81 24/34/82
f 42/54/83 61/74/84 41/53/40 24/34/82 8/8/85
s off
f 43/55/86 42/54/87 8/11/88 6/12/89
s 2
f 23/33/90 44/56/35 59/72/44 43/55/91 6/6/92
f 19/28/93 45/57/27 44/56/35 23/33/90
f 15/23/94 46/58/5 45/57/27 19/28/93
f 11/18/95 47/59/6 46/58/5 15/23/94
f 48/60/96 49/61/97 62/75/98 5/5/99
s off
f 7/13/100 37/49/101 48/60/102 5/14/103
f 50/62/104 49/61/105 52/64/106 51/63/107
f 37/49/108 52/64/109 49/61/110 48/60/111
s 2
f 54/66/112 53/65/50 49/61/97 50/62/113
s off
f 50/62/114 51/63/115 55/67/116 54/66/117
s 4
f 51/63/118 52/64/77 56/68/68 55/67/119
s off
f 53/65/120 54/66/121 55/67/122 56/68/123
f 25/35/124 53/65/125 56/68/126 36/48/127
s 2
f 58/71/128 59/72/44 57/69/43
s 6
f 30/41/59 31/43/58 60/73/129 58/71/130 57/70/131
s 4
f 31/42/62 32/44/39 41/53/40 61/74/84 60/73/132
s off
f 43/55/133 59/72/134 61/74/135 42/54/136
f 59/72/137 58/71/138 60/73/139 61/74/140
s 2
f 49/61/97 53/65/50 26/36/7 47/59/6
f 62/75/98 49/61/97 47/59/6 11/18/95
s 3
f 63/76/19 62/75/18 11/18/10 10/17/9
s 4
f 52/64/77 63/76/76 10/17/79 38/50/15
f 56/68/68 52/64/77 38/50/15 35/47/14
f 64/78/69 56/68/68 35/47/14 9/16/66
s 1
f 65/79/23 64/77/22 9/15/2 12/19/1
s 2
f 53/65/50 65/79/49 12/19/52 26/36/7
