# This file uses centimeters as units for non-parametric coordinates.

mtllib Rock4.mtl
g default
v -4.258377 -0.160556 -0.611457
v -5.401103 0.415959 0.145908
v -5.436184 0.886503 0.319031
v -5.187768 1.333506 -0.176497
v -2.701697 0.137924 0.655979
v -2.640989 0.929912 -0.218866
v -4.450566 -0.156021 0.511633
v -4.945934 0.130051 0.735266
v -3.524088 0.023817 0.791778
v -2.597919 0.050159 -0.372302
v -2.920574 1.014191 -0.943823
v -4.018108 1.277850 -1.027795
v -5.196275 1.010977 -0.708999
v -4.352700 1.386292 -0.400210
v -3.241677 0.671825 0.885263
v -2.366513 0.435287 0.223677
v -5.312214 0.616225 0.730892
v -2.716981 0.700961 -1.021234
v -2.465576 0.600172 -0.731013
v -3.918312 -0.012446 -0.927642
v -3.436380 0.968816 -1.266439
v -4.987364 0.791549 -1.058648
v -3.948631 0.990873 0.987262
v -2.813678 0.279384 0.834441
v -2.621833 -0.023392 -0.200640
v -3.584537 1.414762 -0.078616
v -3.561557 0.422057 -1.257104
v -4.196912 0.379695 0.978097
vn 0.166424 0.053998 0.984575
vn 0.166424 0.053998 0.984575
vn 0.166424 0.053998 0.984575
vn 0.035045 -0.981524 0.188105
vn 0.035045 -0.981524 0.188105
vn 0.035045 -0.981524 0.188105
vn 0.163107 -0.986093 0.031893
vn 0.163107 -0.986093 0.031893
vn 0.163107 -0.986093 0.031893
vn -0.165809 0.387997 -0.906623
vn -0.165809 0.387997 -0.906623
vn -0.165809 0.387997 -0.906623
vn 0.293516 -0.083459 -0.952304
vn 0.293516 -0.083459 -0.952304
vn 0.293516 -0.083459 -0.952304
vn -0.969683 -0.144735 0.196894
vn -0.969683 -0.144735 0.196894
vn -0.969683 -0.144735 0.196894
vn 0.155298 -0.981014 0.116168
vn 0.155298 -0.981014 0.116168
vn 0.155298 -0.981014 0.116168
vn 0.527598 -0.549474 -0.647857
vn 0.527598 -0.549474 -0.647857
vn 0.527598 -0.549474 -0.647857
vn 0.748094 0.661327 -0.054793
vn 0.748094 0.661327 -0.054793
vn 0.748094 0.661327 -0.054793
vn 0.670509 -0.669314 0.320058
vn 0.670509 -0.669314 0.320058
vn 0.670509 -0.669314 0.320058
vn -0.490993 -0.867434 -0.080519
vn -0.490993 -0.867434 -0.080519
vn -0.490993 -0.867434 -0.080519
vn -0.892245 -0.241265 -0.381695
vn -0.892245 -0.241265 -0.381695
vn -0.892245 -0.241265 -0.381695
vn -0.974061 0.010543 -0.226039
vn -0.974061 0.010543 -0.226039
vn -0.974061 0.010543 -0.226039
vn 0.169050 -0.914257 -0.368181
vn 0.169050 -0.914257 -0.368181
vn 0.169050 -0.914257 -0.368180
vn -0.134328 0.013836 -0.990840
vn -0.134328 0.013836 -0.990840
vn -0.134328 0.013836 -0.990840
vn -0.202236 0.067504 0.977008
vn -0.202236 0.067504 0.977008
vn -0.202236 0.067504 0.977008
vn -0.508365 -0.860780 -0.024962
vn -0.508365 -0.860780 -0.024962
vn -0.508365 -0.860780 -0.024962
vn 0.448995 0.721167 0.527562
vn 0.448995 0.721167 0.527562
vn 0.448995 0.721167 0.527562
vn 0.099182 -0.055190 0.993538
vn 0.099182 -0.055190 0.993538
vn 0.099182 -0.055190 0.993538
vn -0.248931 -0.178981 0.951840
vn -0.248931 -0.178981 0.951840
vn -0.248931 -0.178981 0.951840
vn -0.301955 0.778219 0.550635
vn -0.301955 0.778219 0.550635
vn -0.301955 0.778219 0.550635
vn -0.315288 0.747102 0.585177
vn -0.315288 0.747102 0.585177
vn -0.315288 0.747102 0.585177
vn 0.238374 0.833559 -0.498354
vn 0.238374 0.833559 -0.498355
vn 0.238374 0.833559 -0.498355
vn -0.760497 -0.570157 0.310749
vn -0.760497 -0.570157 0.310749
vn -0.760497 -0.570157 0.310749
vn -0.080382 -0.696557 0.712985
vn -0.080382 -0.696556 0.712985
vn -0.080382 -0.696557 0.712985
vn -0.075121 -0.570289 0.818002
vn -0.075121 -0.570289 0.818002
vn -0.075121 -0.570289 0.818002
vn 0.977893 -0.203251 0.049139
vn 0.977893 -0.203251 0.049139
vn 0.977893 -0.203251 0.049139
vn 0.436906 0.473057 -0.765069
vn 0.436906 0.473057 -0.765069
vn 0.436906 0.473057 -0.765069
vn 0.071215 -0.353653 0.932662
vn 0.071215 -0.353653 0.932662
vn 0.071215 -0.353653 0.932662
vn -0.930684 0.319304 -0.178531
vn -0.930684 0.319304 -0.178531
vn -0.930684 0.319304 -0.178531
vn -0.330055 0.698148 -0.635337
vn -0.330055 0.698148 -0.635337
vn -0.330055 0.698148 -0.635337
vn -0.289157 0.905484 -0.310623
vn -0.289157 0.905484 -0.310623
vn -0.289157 0.905484 -0.310623
vn -0.188878 0.841278 -0.506533
vn -0.188878 0.841278 -0.506533
vn -0.188878 0.841278 -0.506533
vn -0.052896 0.997877 0.038009
vn -0.052896 0.997877 0.038008
vn -0.052896 0.997876 0.038008
vn 0.877468 0.479565 -0.008224
vn 0.877468 0.479565 -0.008224
vn 0.877468 0.479565 -0.008224
vn 0.917675 -0.364492 -0.158174
vn 0.917675 -0.364492 -0.158174
vn 0.917675 -0.364492 -0.158174
vn 0.588641 0.567406 0.575805
vn 0.588641 0.567406 0.575805
vn 0.588641 0.567406 0.575805
vn 0.510396 0.759293 0.403695
vn 0.510396 0.759293 0.403695
vn 0.510396 0.759293 0.403695
vn 0.708350 0.678595 -0.194291
vn 0.708350 0.678595 -0.194291
vn 0.708350 0.678595 -0.194291
vn 0.710449 0.565352 -0.419093
vn 0.710449 0.565352 -0.419093
vn 0.710449 0.565352 -0.419093
vn 0.297815 -0.719900 -0.626937
vn 0.297815 -0.719900 -0.626937
vn 0.297815 -0.719900 -0.626937
vn -0.237472 -0.455558 -0.857947
vn -0.237472 -0.455558 -0.857947
vn -0.237472 -0.455558 -0.857947
vn 0.447815 0.891454 -0.069069
vn 0.447815 0.891454 -0.069069
vn 0.447815 0.891454 -0.069069
vn 0.393659 -0.611965 -0.685953
vn 0.393659 -0.611965 -0.685953
vn 0.393659 -0.611965 -0.685953
vn 0.159675 -0.948759 -0.272692
vn 0.159675 -0.948759 -0.272691
vn 0.159675 -0.948759 -0.272691
vn 0.028479 0.987435 -0.155439
vn 0.028479 0.987435 -0.155439
vn 0.028479 0.987435 -0.155439
vn 0.244170 0.937800 -0.246804
vn 0.244170 0.937800 -0.246804
vn 0.244170 0.937800 -0.246804
vn -0.068647 0.934854 0.348333
vn -0.068647 0.934854 0.348333
vn -0.068647 0.934854 0.348333
vn 0.209906 -0.697808 0.684839
vn 0.209906 -0.697808 0.684839
vn 0.209906 -0.697808 0.684839
vn 0.419958 0.784898 0.455600
vn 0.419958 0.784898 0.455600
vn 0.419958 0.784898 0.455600
vn -0.614904 -0.667808 -0.419434
vn -0.614904 -0.667808 -0.419434
vn -0.614904 -0.667808 -0.419434
vn -0.377010 -0.614256 -0.693219
vn -0.377010 -0.614256 -0.693219
vn -0.377010 -0.614256 -0.693219
s off
g pPlatonic3
usemtl initialShadingGroup
f 24//1 15//2 23//3
f 25//4 5//5 1//6
f 5//7 7//8 1//9
f 12//10 21//11 22//12
f 21//13 18//14 27//15
f 3//16 2//17 17//18
f 5//19 9//20 7//21
f 19//22 10//23 18//24
f 25//25 24//26 5//27
f 16//28 24//29 25//30
f 1//31 7//32 2//33
f 2//34 13//35 22//36
f 2//37 3//38 13//39
f 1//40 10//41 25//42
f 21//43 27//44 22//45
f 23//46 17//47 28//48
f 8//49 2//50 7//51
f 6//52 26//53 16//54
f 23//55 28//56 24//57
f 28//58 17//59 8//60
f 3//61 23//62 4//63
f 3//64 17//65 23//66
f 11//67 21//68 12//69
f 2//70 8//71 17//72
f 9//73 8//74 7//75
f 28//76 8//77 9//78
f 19//79 25//80 10//81
f 18//82 21//83 11//84
f 9//85 24//86 28//87
f 13//88 3//89 4//90
f 22//91 13//92 12//93
f 14//94 12//95 13//96
f 4//97 14//98 13//99
f 4//100 26//101 14//102
f 6//103 16//104 19//105
f 16//106 25//107 19//108
f 15//109 24//110 16//111
f 15//112 16//113 26//114
f 11//115 6//116 19//117
f 11//118 19//119 18//120
f 27//121 10//122 20//123
f 22//124 27//125 20//126
f 6//127 11//128 26//129
f 10//130 27//131 18//132
f 1//133 20//134 10//135
f 26//136 12//137 14//138
f 12//139 26//140 11//141
f 4//142 23//143 26//144
f 9//145 5//146 24//147
f 15//148 26//149 23//150
f 22//151 1//152 2//153
f 1//154 22//155 20//156
